{
    "asset" : {
        "generator" : "Khronos glTF Blender I/O v3.3.32",
        "version" : "2.0"
    },
    "scene" : 0,
    "scenes" : [
        {
            "name" : "Scene",
            "nodes" : [
                0
            ]
        }
    ],
    "nodes" : [
        {
            "mesh" : 0,
            "name" : "Cylinder"
        }
    ],
    "materials" : [
        {
            "name" : "DefaultMaterial",
            "normalTexture" : {
                "index" : 0
            },
            "occlusionTexture" : {
                "index" : 1
            },
            "pbrMetallicRoughness" : {
                "baseColorTexture" : {
                    "index" : 2
                },
                "metallicRoughnessTexture" : {
                    "index" : 1
                }
            }
        }
    ],
    "meshes" : [
        {
            "name" : "Cylinder",
            "primitives" : [
                {
                    "attributes" : {
                        "POSITION" : 0,
                        "NORMAL" : 1,
                        "TEXCOORD_0" : 2
                    },
                    "indices" : 3,
                    "material" : 0
                }
            ]
        }
    ],
    "textures" : [
        {
            "sampler" : 0,
            "source" : 0
        },
        {
            "sampler" : 0,
            "source" : 1
        },
        {
            "sampler" : 0,
            "source" : 2
        }
    ],
    "images" : [
        {
            "bufferView" : 4,
            "mimeType" : "image/png",
            "name" : "DefaultMaterial_normal"
        },
        {
            "bufferView" : 5,
            "mimeType" : "image/png",
            "name" : "DefaultMaterial_occlusionRoughnessMetallic"
        },
        {
            "bufferView" : 6,
            "mimeType" : "image/png",
            "name" : "DefaultMaterial_baseColor"
        }
    ],
    "accessors" : [
        {
            "bufferView" : 0,
            "componentType" : 5126,
            "count" : 1581,
            "max" : [
                2.9857804775238037,
                4.4229607582092285,
                2.9857800006866455
            ],
            "min" : [
                -2.9857795238494873,
                -1.6999998092651367,
                -2.9857804775238037
            ],
            "type" : "VEC3"
        },
        {
            "bufferView" : 1,
            "componentType" : 5126,
            "count" : 1581,
            "type" : "VEC3"
        },
        {
            "bufferView" : 2,
            "componentType" : 5126,
            "count" : 1581,
            "type" : "VEC2"
        },
        {
            "bufferView" : 3,
            "componentType" : 5123,
            "count" : 8826,
            "type" : "SCALAR"
        }
    ],
    "bufferViews" : [
        {
            "buffer" : 0,
            "byteLength" : 18972,
            "byteOffset" : 0,
            "target" : 34962
        },
        {
            "buffer" : 0,
            "byteLength" : 18972,
            "byteOffset" : 18972,
            "target" : 34962
        },
        {
            "buffer" : 0,
            "byteLength" : 12648,
            "byteOffset" : 37944,
            "target" : 34962
        },
        {
            "buffer" : 0,
            "byteLength" : 17652,
            "byteOffset" : 50592,
            "target" : 34963
        },
        {
            "buffer" : 0,
            "byteLength" : 1539761,
            "byteOffset" : 68244
        },
        {
            "buffer" : 0,
            "byteLength" : 146572,
            "byteOffset" : 1608008
        },
        {
            "buffer" : 0,
            "byteLength" : 354077,
            "byteOffset" : 1754580
        }
    ],
    "samplers" : [
        {
            "magFilter" : 9729,
            "minFilter" : 9987
        }
    ],
    "buffers" : [
        {
            "byteLength" : 2108660,
            "uri" : "data:application/octet-stream;base64,"
        }
    ]
}
